<?xml version="1.0" encoding="utf-8"?>
<!DOCTYPE svg PUBLIC "-//W3C//DTD SVG 1.1//EN" "http://www.w3.org/Graphics/SVG/1.1/DTD/svg11.dtd">
<svg version="1.1" xmlns="http://www.w3.org/2000/svg" xmlns:xlink="http://www.w3.org/1999/xlink" x="0px" y="0px"
	 viewBox="0 0 216.908 174.138"
	 xml:space="preserve">
<g id="Layer_1">
	<path d="M204.589,0L191.06,50.487C177.234,20.739,147.092,0.11,112.128,0.11c-30.41,0-57.169,15.605-72.723,39.241
		C35.656,26.547,29.911,8.218,25.548,0.085l-5.494,1.471l12.295,45.881l-4.396,1.178L15.658,2.735L9.89,4.28l12.295,45.879
		l-4.397,1.18L5.495,5.455L0,6.93c0.466,14.915,11.132,54.731,11.132,54.731s8.791-2.357,12.383,11.051l1.916,7.15
		c-0.197,2.391-0.303,4.807-0.303,7.248c0,18.45,5.749,35.556,15.545,49.634l9.896,36.931c5.064,1.314,10.832-0.229,14.559-3.902
		l-3.087-11.522c14.162,9.99,31.438,15.86,50.087,15.86c18.632,0,35.895-5.86,50.05-15.834l-3.063,11.434
		c3.76,3.705,9.58,5.262,14.688,3.932l9.955-37.148c8.35-12.089,13.717-26.393,15.043-41.854c3.117-1.78,5.949-1.023,5.949-1.023
		C220.765,26.091,221.212,7.796,204.589,0z M112.128,162.11c-41.422,0-75-33.578-75-75c0-41.421,33.578-75,75-75s75,33.579,75,75
		C187.128,128.532,153.55,162.11,112.128,162.11z"/>
	<g>
		<g>
			<polygon fill-rule="evenodd" clip-rule="evenodd" points="90.277,78.611 132.273,78.611 112.143,41.421 			"/>
		</g>
		<g>
			<polygon fill-rule="evenodd" clip-rule="evenodd" points="83.378,77.879 106.735,38.154 85.803,38.154 
				49.542,65.184 			"/>
		</g>
		<g>
			<polygon fill-rule="evenodd" clip-rule="evenodd" points="174.713,65.174 136.569,38.154 117.559,38.154 
				139.064,77.886 			"/>
		</g>
		<g>
			<polygon fill-rule="evenodd" clip-rule="evenodd" points="102.535,146.089 82.226,84.195 51.403,72.63 			"/>
		</g>
		<g>
			<polygon fill-rule="evenodd" clip-rule="evenodd" points="140.138,84.21 121.038,147.44 173.273,72.395 			"/>
		</g>
		<g>
			<polygon fill-rule="evenodd" clip-rule="evenodd" points="89.116,84.929 112.132,155.073 133.321,84.929 			"/>
		</g>
	</g>
</g>
</svg>
